<svg xmlns="http://www.w3.org/2000/svg" viewBox="0 0 48 60" x="0px" y="0px"><title>ui vol.1</title><g data-name="Layer 24"><path d="M45.63,3.1H2.37a1,1,0,0,0-1,1V43.9a1,1,0,0,0,1,1H45.63a1,1,0,0,0,1-1V4.1A1,1,0,0,0,45.63,3.1ZM39.18,28h5.45v3.92H39.18Zm0-2V22h5.45V26Zm0-5.92V16.12h5.45V20Zm0-5.92V10.2h5.45v3.92Zm0,19.76h5.45V37.8H39.18ZM44.63,8.2H39.18V5.1h5.45ZM37.18,5.1V23H10.82V5.1ZM8.82,31.88H3.37V28H8.82Zm0-5.92H3.37V22H8.82Zm0-5.92H3.37V16.12H8.82Zm0-5.92H3.37V10.2H8.82ZM3.37,33.88H8.82V37.8H3.37ZM8.82,5.1V8.2H3.37V5.1ZM3.37,39.8H8.82v3.1H3.37Zm7.45,3.1V25H37.18V42.9Zm28.36,0V39.8h5.45v3.1Z"/></g><text x="0" y="63" fill="#000000" font-size="5px" font-weight="bold" font-family="'Helvetica Neue', Helvetica, Arial-Unicode, Arial, Sans-serif">Created by Fahmi Ramdani</text><text x="0" y="68" fill="#000000" font-size="5px" font-weight="bold" font-family="'Helvetica Neue', Helvetica, Arial-Unicode, Arial, Sans-serif">from the Noun Project</text></svg>