<svg id="Capa_1" enable-background="new 0 0 484.192 484.192" height="512" viewBox="0 0 484.192 484.192" width="512" xmlns="http://www.w3.org/2000/svg"><g><path d="m429.951 388.535h-375.71c.013-29.957-24.261-54.252-54.218-54.265-.008 0-.016 0-.024 0v-184.348c29.957 0 54.241-24.285 54.241-54.241 0-.008 0-.016 0-.024h375.71c-.013 29.957 24.261 54.252 54.218 54.265h.024v184.348c-29.957 0-54.241 24.285-54.241 54.241z" fill="#f6c863"/><g fill="#eab54e"><path d="m403.078 357.552h-321.964v-5.799c0-19.241-15.598-34.838-34.838-34.838h-5.799v-149.65h5.799c19.241 0 34.838-15.598 34.838-34.838v-5.798h321.964v5.798c0 19.241 15.598 34.838 34.838 34.838h5.799v149.663h-5.799c-19.241 0-34.838 15.598-34.838 34.838zm-310.727-11.597h299.491c2.681-21.027 19.238-37.583 40.265-40.265v-127.188c-21.027-2.682-37.583-19.238-40.265-40.265h-299.491c-2.682 21.027-19.238 37.583-40.265 40.265v127.189c21.027 2.681 37.583 19.237 40.265 40.264z"/><path d="m142.795 165.523h198.607c3.202 0 5.799 2.596 5.799 5.798 0 3.202-2.596 5.798-5.799 5.798h-198.607c-3.202 0-5.798-2.596-5.798-5.798 0-3.202 2.596-5.798 5.798-5.798z"/><path d="m142.795 307.072h198.607c3.202 0 5.799 2.596 5.799 5.799 0 3.202-2.596 5.799-5.799 5.799h-198.607c-3.202 0-5.798-2.596-5.798-5.799 0-3.202 2.596-5.799 5.798-5.799z"/></g><path d="m242.096 192.779 11.072 34.077h35.836l-28.993 21.062 11.072 34.077-28.987-21.063-28.986 21.063 11.071-34.077-28.992-21.062h35.836z" fill="#ef5261"/></g></svg>